<svg xmlns="http://www.w3.org/2000/svg" viewBox="0 0 100 100" preserveAspectRatio="xMidYMid" width="290" height="290" style="shape-rendering: auto; display: block; background: transparent;" xmlns:xlink="http://www.w3.org/1999/xlink"><g><g transform="rotate(0 50 50)">
  <rect fill="#00aeef" height="18" width="7" ry="9" rx="3.5" y="21" x="46.5">
    <animate repeatCount="indefinite" begin="-0.9163802978235968s" dur="1.0309278350515465s" keyTimes="0;1" values="1;0" attributeName="opacity"></animate>
  </rect>
</g><g transform="rotate(40 50 50)">
  <rect fill="#00aeef" height="18" width="7" ry="9" rx="3.5" y="21" x="46.5">
    <animate repeatCount="indefinite" begin="-0.8018327605956471s" dur="1.0309278350515465s" keyTimes="0;1" values="1;0" attributeName="opacity"></animate>
  </rect>
</g><g transform="rotate(80 50 50)">
  <rect fill="#00aeef" height="18" width="7" ry="9" rx="3.5" y="21" x="46.5">
    <animate repeatCount="indefinite" begin="-0.6872852233676976s" dur="1.0309278350515465s" keyTimes="0;1" values="1;0" attributeName="opacity"></animate>
  </rect>
</g><g transform="rotate(120 50 50)">
  <rect fill="#00aeef" height="18" width="7" ry="9" rx="3.5" y="21" x="46.5">
    <animate repeatCount="indefinite" begin="-0.572737686139748s" dur="1.0309278350515465s" keyTimes="0;1" values="1;0" attributeName="opacity"></animate>
  </rect>
</g><g transform="rotate(160 50 50)">
  <rect fill="#00aeef" height="18" width="7" ry="9" rx="3.5" y="21" x="46.5">
    <animate repeatCount="indefinite" begin="-0.4581901489117984s" dur="1.0309278350515465s" keyTimes="0;1" values="1;0" attributeName="opacity"></animate>
  </rect>
</g><g transform="rotate(200 50 50)">
  <rect fill="#00aeef" height="18" width="7" ry="9" rx="3.5" y="21" x="46.5">
    <animate repeatCount="indefinite" begin="-0.3436426116838488s" dur="1.0309278350515465s" keyTimes="0;1" values="1;0" attributeName="opacity"></animate>
  </rect>
</g><g transform="rotate(240 50 50)">
  <rect fill="#00aeef" height="18" width="7" ry="9" rx="3.5" y="21" x="46.5">
    <animate repeatCount="indefinite" begin="-0.2290950744558992s" dur="1.0309278350515465s" keyTimes="0;1" values="1;0" attributeName="opacity"></animate>
  </rect>
</g><g transform="rotate(280 50 50)">
  <rect fill="#00aeef" height="18" width="7" ry="9" rx="3.5" y="21" x="46.5">
    <animate repeatCount="indefinite" begin="-0.1145475372279496s" dur="1.0309278350515465s" keyTimes="0;1" values="1;0" attributeName="opacity"></animate>
  </rect>
</g><g transform="rotate(320 50 50)">
  <rect fill="#00aeef" height="18" width="7" ry="9" rx="3.5" y="21" x="46.5">
    <animate repeatCount="indefinite" begin="0s" dur="1.0309278350515465s" keyTimes="0;1" values="1;0" attributeName="opacity"></animate>
  </rect>
</g><g></g></g><!-- [ldio] generated by https://loading.io --></svg>