<svg xmlns="http://www.w3.org/2000/svg" version="1.1" xmlns:xlink="http://www.w3.org/1999/xlink" xmlns:svgjs="http://svgjs.dev/svgjs" width="2000" height="388" viewBox="0 0 2000 388"><g transform="matrix(1,0,0,1,-1.2121212121212466,-2.288615360900252)"><svg viewBox="0 0 396 77" data-background-color="#ffffff" preserveAspectRatio="xMidYMid meet" height="388" width="2000" xmlns="http://www.w3.org/2000/svg" xmlns:xlink="http://www.w3.org/1999/xlink"><g id="tight-bounds" transform="matrix(1,0,0,1,0.2400000000000091,0.4541839762611346)"><svg viewBox="0 0 395.52 76.09163204747775" height="76.09163204747775" width="395.52"><g><svg viewBox="0 0 395.52 76.09163204747775" height="76.09163204747775" width="395.52"><g><svg viewBox="0 0 395.52 76.09163204747775" height="76.09163204747775" width="395.52"><g id="textblocktransform"><svg viewBox="0 0 395.52 76.09163204747775" height="76.09163204747775" width="395.52" id="textblock"><g><svg viewBox="0 0 395.52 76.09163204747775" height="76.09163204747775" width="395.52"><g transform="matrix(1,0,0,1,0,0)"><svg width="395.52" viewBox="1.7 -38.5 202.19 38.9" height="76.09163204747775" data-palette-color="url(#ff0c7edd-90b2-4274-9153-3e2412cd8f03)"></svg></g></svg></g></svg></g></svg></g></svg></g><defs></defs><mask id="f0c647aa-d894-4710-8a3a-2c0925505877"><g id="SvgjsG1189"><svg viewBox="0 0 395.52 76.09163204747775" height="76.09163204747775" width="395.52"><g><svg viewBox="0 0 395.52 76.09163204747775" height="76.09163204747775" width="395.52"><g><svg viewBox="0 0 395.52 76.09163204747775" height="76.09163204747775" width="395.52"><g id="SvgjsG1188"><svg viewBox="0 0 395.52 76.09163204747775" height="76.09163204747775" width="395.52" id="SvgjsSvg1187"><g><svg viewBox="0 0 395.52 76.09163204747775" height="76.09163204747775" width="395.52"><g transform="matrix(1,0,0,1,0,0)"><svg width="395.52" viewBox="1.7 -38.5 202.19 38.9" height="76.09163204747775" data-palette-color="url(#ff0c7edd-90b2-4274-9153-3e2412cd8f03)"><path d="M27.2 0L24.7-7.1 10.15-7.1 7.65 0 1.7 0 14.15-34.8 20.75-34.8 33.2 0 27.2 0ZM11.75-11.75L23.1-11.75 17.45-27.9 11.75-11.75ZM41.5-31.2Q39.95-31.2 38.9-32.25 37.85-33.3 37.85-34.85L37.85-34.85Q37.85-36.4 38.9-37.45 39.95-38.5 41.5-38.5L41.5-38.5Q43-38.5 44.05-37.45 45.1-36.4 45.1-34.85L45.1-34.85Q45.1-33.3 44.05-32.25 43-31.2 41.5-31.2L41.5-31.2ZM38.6-27.55L44.3-27.55 44.3 0 38.6 0 38.6-27.55ZM63.25 0.35Q59.75 0.35 56.95-0.88 54.15-2.1 52.55-4.35 50.95-6.6 50.95-9.6L50.95-9.6 57.05-9.6Q57.25-7.35 58.82-5.9 60.4-4.45 63.25-4.45L63.25-4.45Q66.2-4.45 67.85-5.88 69.5-7.3 69.5-9.55L69.5-9.55Q69.5-11.3 68.47-12.4 67.45-13.5 65.92-14.1 64.4-14.7 61.7-15.4L61.7-15.4Q58.3-16.3 56.17-17.23 54.05-18.15 52.55-20.1 51.05-22.05 51.05-25.3L51.05-25.3Q51.05-28.3 52.55-30.55 54.05-32.8 56.75-34 59.45-35.2 63-35.2L63-35.2Q68.05-35.2 71.27-32.68 74.5-30.15 74.85-25.75L74.85-25.75 68.55-25.75Q68.4-27.65 66.75-29 65.1-30.35 62.4-30.35L62.4-30.35Q59.95-30.35 58.4-29.1 56.85-27.85 56.85-25.5L56.85-25.5Q56.85-23.9 57.82-22.88 58.8-21.85 60.3-21.25 61.8-20.65 64.4-19.95L64.4-19.95Q67.85-19 70.02-18.05 72.2-17.1 73.72-15.13 75.25-13.15 75.25-9.85L75.25-9.85Q75.25-7.2 73.82-4.85 72.4-2.5 69.67-1.07 66.95 0.35 63.25 0.35L63.25 0.35ZM101.24-27.55L106.94-27.55 106.94 0 101.24 0 101.24-3.25Q99.89-1.55 97.72-0.58 95.54 0.4 93.09 0.4L93.09 0.4Q89.84 0.4 87.27-0.95 84.69-2.3 83.22-4.95 81.74-7.6 81.74-11.35L81.74-11.35 81.74-27.55 87.39-27.55 87.39-12.2Q87.39-8.5 89.24-6.53 91.09-4.55 94.29-4.55L94.29-4.55Q97.49-4.55 99.37-6.53 101.24-8.5 101.24-12.2L101.24-12.2 101.24-27.55ZM147.79-28Q151.04-28 153.62-26.65 156.19-25.3 157.67-22.65 159.14-20 159.14-16.25L159.14-16.25 159.14 0 153.49 0 153.49-15.4Q153.49-19.1 151.64-21.08 149.79-23.05 146.59-23.05L146.59-23.05Q143.39-23.05 141.52-21.08 139.64-19.1 139.64-15.4L139.64-15.4 139.64 0 133.99 0 133.99-15.4Q133.99-19.1 132.14-21.08 130.29-23.05 127.09-23.05L127.09-23.05Q123.89-23.05 122.02-21.08 120.14-19.1 120.14-15.4L120.14-15.4 120.14 0 114.44 0 114.44-27.55 120.14-27.55 120.14-24.4Q121.54-26.1 123.69-27.05 125.84-28 128.29-28L128.29-28Q131.59-28 134.19-26.6 136.79-25.2 138.19-22.55L138.19-22.55Q139.44-25.05 142.09-26.53 144.74-28 147.79-28L147.79-28ZM183.94-22.9L171.44-4.65 183.94-4.65 183.94 0 164.84 0 164.84-4.65 177.39-22.9 164.84-22.9 164.84-27.55 183.94-27.55 183.94-22.9ZM195.64-23.55Q196.89-25.65 198.96-26.83 201.04-28 203.89-28L203.89-28 203.89-22.1 202.44-22.1Q199.09-22.1 197.36-20.4 195.64-18.7 195.64-14.5L195.64-14.5 195.64 0 189.94 0 189.94-27.55 195.64-27.55 195.64-23.55Z" opacity="1" transform="matrix(1,0,0,1,0,0)" fill="white" class="wordmark-text-0" id="SvgjsPath1186"></path></svg></g></svg></g></svg></g></svg></g></svg></g><defs><mask></mask></defs></svg><rect width="395.52" height="76.09163204747775" fill="black" stroke="none" visibility="hidden"></rect></g></mask><linearGradient x1="0" x2="1" y1="0.578" y2="0.595" id="ff0c7edd-90b2-4274-9153-3e2412cd8f03"><stop stop-color="#6ee2f5" offset="0"></stop><stop stop-color="#6454f0" offset="1"></stop></linearGradient><rect width="395.52" height="76.09163204747775" fill="url(#ff0c7edd-90b2-4274-9153-3e2412cd8f03)" mask="url(#f0c647aa-d894-4710-8a3a-2c0925505877)" data-fill-palette-color="primary"></rect></svg><rect width="395.52" height="76.09163204747775" fill="none" stroke="none" visibility="hidden"></rect></g></svg></g></svg>